<svg width="49" height="49" viewBox="0 0 49 49" fill="white" xmlns="http://www.w3.org/2000/svg">
<g clip-path="url(#clip0_634_13014)">
<path fill-rule="evenodd" clip-rule="evenodd" d="M20.3903 4.23174C20.3775 4.29534 20.3611 4.35815 20.341 4.41985C20.0991 5.01377 19.8509 5.60857 19.6117 6.20517C19.3115 6.95137 19.0185 7.70115 18.7157 8.44466C18.4469 9.10934 18.1736 9.77133 17.9092 10.4369C17.6449 11.1025 17.3779 11.7806 17.11 12.4542C16.8026 13.2201 16.4917 13.9834 16.1826 14.7484C15.9774 15.2563 15.7785 15.766 15.5724 16.2712C15.3583 16.8033 15.136 17.3345 14.9219 17.8675C14.6764 18.4758 14.4354 19.0858 14.1925 19.6941C13.9775 20.2315 13.7597 20.7735 13.5456 21.3128C13.3547 21.7992 13.172 22.2847 12.9811 22.7711C12.7795 23.2817 12.5734 23.7905 12.3691 24.3002C12.0931 24.9855 11.8055 25.6672 11.5466 26.3606C11.4623 26.5854 11.439 26.838 11.5967 27.0629C12.224 27.9587 12.8583 28.8545 13.4784 29.7565C13.5196 29.8264 13.5803 29.8828 13.653 29.9189C13.7257 29.955 13.8073 29.9692 13.8879 29.9599C13.9313 29.965 13.9751 29.9546 14.0115 29.9305C14.0479 29.9064 14.0746 29.8701 14.0868 29.8282C14.1898 29.5469 14.3072 29.2719 14.4201 28.996L15.2391 26.9778C15.4183 26.5254 15.6038 26.073 15.7839 25.6206C15.964 25.1683 16.1351 24.7132 16.3215 24.2626C16.5903 23.5979 16.869 22.9368 17.1378 22.2713C17.3913 21.6442 17.6395 21.0171 17.8904 20.3901C18.1028 19.8526 18.3133 19.3214 18.5275 18.7884C18.6744 18.4176 18.8241 18.0476 18.9755 17.6767C19.1935 17.1392 19.411 16.5997 19.6278 16.058C19.807 15.6101 19.9808 15.1667 20.1601 14.7215C20.35 14.2503 20.5444 13.7818 20.7344 13.3124C20.9745 12.7158 21.2111 12.1192 21.4512 11.5208C21.6636 10.9923 21.8786 10.4665 22.091 9.93885C22.3365 9.32971 22.5793 8.71967 22.8239 8.11053C23.0031 7.66263 23.1868 7.2228 23.3615 6.77579C23.5569 6.27863 23.7415 5.77788 23.9341 5.28071C24.1133 4.82565 24.2979 4.37327 24.4717 3.91821C24.5138 3.80713 24.573 3.74622 24.6948 3.75428C24.7558 3.76055 24.8185 3.75428 24.8785 3.75428C25.374 3.78294 25.8704 3.81161 26.3677 3.84386C26.4349 3.84386 26.5012 3.86536 26.5684 3.87431C26.6957 3.89133 26.8247 3.90477 26.9519 3.92C27.0415 3.93075 27.1311 3.93702 27.2207 3.95046C27.5075 3.99704 27.7951 4.04004 28.0827 4.09468C28.4295 4.1547 28.778 4.21113 29.1221 4.28638C29.4061 4.3464 29.6848 4.4306 29.9661 4.50943C30.3873 4.63037 30.812 4.74234 31.2286 4.88119C31.8559 5.0917 32.4732 5.34163 33.0816 5.60857C34.1416 6.07964 35.1605 6.63784 36.1281 7.27744C37.0212 7.86477 37.8672 8.52068 38.6585 9.23923C39.8348 10.3042 40.8868 11.4987 41.7946 12.8C41.8223 12.8531 41.8645 12.8973 41.9164 12.9272C42.0028 12.958 42.097 12.959 42.184 12.9301C42.271 12.9012 42.3459 12.8441 42.3967 12.7678C42.5687 12.5241 42.7354 12.2751 42.9074 12.0296C43.3059 11.4617 43.7052 10.8944 44.1054 10.3276C44.163 10.2441 44.1974 10.1467 44.2049 10.0454C44.2246 9.843 44.1395 9.6943 44.0257 9.54649C43.5131 8.89166 42.9818 8.25475 42.4128 7.6492C41.2675 6.43489 39.9994 5.34246 38.6289 4.3894C38.5904 4.36163 38.5572 4.32938 38.5223 4.29982C38.526 4.27704 38.5333 4.25498 38.5438 4.23442C38.7535 3.91821 38.964 3.6002 39.1764 3.28309C39.3887 2.96598 39.5921 2.6623 39.8036 2.35325C39.9066 2.20366 39.8842 2.03973 39.8726 1.87848C39.8636 1.75845 39.7418 1.72799 39.6602 1.67603C39.1531 1.35892 38.6432 1.04271 38.1289 0.736344C37.8664 0.57958 37.5913 0.44521 37.3225 0.2983C37.1728 0.227004 37.0014 0.21641 36.844 0.268739C36.7598 0.291133 36.6971 0.417441 36.637 0.505229C36.2294 1.11527 35.8244 1.72888 35.4158 2.33982C35.3881 2.37332 35.3565 2.40339 35.3217 2.4294C34.8611 2.22784 34.4194 2.01733 33.9669 1.83548C33.4069 1.61064 32.8424 1.39296 32.2644 1.20843C31.7439 1.03554 31.2116 0.894004 30.6785 0.76053C30.183 0.627057 29.6767 0.522249 29.1723 0.414753C28.959 0.369068 28.7449 0.334132 28.5298 0.2983C28.2762 0.256197 28.0218 0.20872 27.7655 0.178263C27.3453 0.132578 26.9259 0.100329 26.5048 0.0689762C26.1464 0.0421024 25.788 0.0152285 25.4242 0.00627057C24.9278 0 24.4305 0 23.9323 0C23.1506 0.00166127 22.3697 0.0534249 21.5946 0.154973C21.3392 0.189013 21.083 0.217678 20.8258 0.251718C20.5686 0.285759 20.3267 0.311737 20.0812 0.357422C19.7228 0.425503 19.3644 0.501944 19.006 0.586746C18.5051 0.704095 18.0105 0.815174 17.5195 0.957605C17.0284 1.10004 16.5661 1.27203 16.0921 1.43327C15.2956 1.70658 14.5175 2.03062 13.7624 2.40342C12.3224 3.10117 10.9542 3.93825 9.67746 4.90269C8.34362 5.90698 7.11837 7.04785 6.02168 8.30671C5.57367 8.82627 5.15254 9.37091 4.72513 9.91018C4.64229 10.0058 4.59551 10.1274 4.59289 10.2538C4.59027 10.3803 4.63198 10.5037 4.7108 10.6026C4.91151 10.8866 5.10863 11.1724 5.30755 11.4563C5.70837 12.0308 6.11009 12.605 6.5127 13.1789C6.5444 13.2299 6.59101 13.27 6.64621 13.2936C6.83438 13.3554 6.97864 13.2936 7.09422 13.1225C7.33257 12.7812 7.56464 12.4372 7.81821 12.1085C8.12196 11.7161 8.44543 11.3363 8.76352 10.9574C9.45294 10.1577 10.2083 9.41728 11.0215 8.74386C11.4552 8.38554 11.9077 8.04424 12.3655 7.71101C13.228 7.08195 14.1432 6.52867 15.1011 6.05737C15.6763 5.77161 16.2659 5.51272 16.8618 5.27534C17.4576 5.03795 18.0831 4.82744 18.7022 4.62678C19.1269 4.49152 19.5642 4.39477 19.9979 4.28817C20.1135 4.25951 20.2362 4.25413 20.3903 4.23174Z" fill="white"/>
<path fill-rule="evenodd" clip-rule="evenodd" d="M30.717 9.40575C30.518 9.70494 30.3478 9.96562 30.1793 10.2254C29.6032 11.0916 29.0235 11.957 28.45 12.8232C28.4145 12.8865 28.392 12.9562 28.3837 13.0283C28.3362 13.3096 28.4832 13.5443 28.5782 13.7898C28.8174 14.4079 29.0701 15.0233 29.3156 15.6396C29.5611 16.2559 29.7869 16.8543 30.027 17.4598C30.3783 18.3494 30.7367 19.2353 31.0888 20.1248C31.4472 21.0278 31.7949 21.9334 32.1488 22.8364C32.483 23.682 32.8199 24.5268 33.1524 25.3733C33.1873 25.4629 33.2312 25.5426 33.3316 25.5381C33.4588 25.5292 33.6004 25.5999 33.7007 25.4432C33.8468 25.2147 34.0197 25.0015 34.1684 24.7749C34.3432 24.5062 34.5009 24.2294 34.6774 23.9687C34.888 23.6534 35.1182 23.3497 35.3288 23.0326C36.1418 21.8173 36.9533 20.6011 37.7633 19.384C38.3087 18.5629 38.8553 17.7417 39.403 16.9206C39.8845 16.1956 40.3665 15.4709 40.8492 14.7465C41.0643 14.4258 41.2829 14.1051 41.4979 13.7826C41.5611 13.6859 41.5947 13.5729 41.5947 13.4574C41.5947 13.3419 41.5611 13.229 41.4979 13.1323C40.9169 12.3601 40.2885 11.6247 39.6163 10.9304C39.4604 10.7683 39.2847 10.8095 39.1055 10.8229C39.0733 10.8229 39.0383 10.8668 39.0159 10.8981C38.8511 11.1221 38.6817 11.346 38.5267 11.5754C38.1423 12.1451 37.7651 12.7184 37.3843 13.2899C36.9192 13.9859 36.4533 14.6793 35.9892 15.3762C35.4247 16.2242 34.8611 17.074 34.2984 17.9257C34.263 17.972 34.2247 18.016 34.1837 18.0573C34.1553 18.0109 34.1293 17.9631 34.1057 17.914C33.8405 17.2392 33.5756 16.5643 33.311 15.8895C33.0123 15.1448 32.7136 14.4016 32.4149 13.6599C32.3962 13.6197 32.3889 13.5751 32.3938 13.531C32.3987 13.4869 32.4156 13.4451 32.4427 13.41C32.569 13.2308 32.6873 13.0516 32.8083 12.8725C33.3519 12.0663 33.897 11.26 34.4435 10.4538C34.8763 9.81781 35.3172 9.18807 35.7508 8.55385C35.9256 8.29496 35.9076 8.01637 35.6612 7.82736C35.4121 7.62785 35.1458 7.4507 34.8656 7.29794C34.2497 6.96291 33.6267 6.64102 32.9964 6.33227C32.4588 6.0707 31.9143 5.82555 31.363 5.59683C30.9383 5.41767 30.5001 5.27255 30.0629 5.13191C29.7197 5.01635 29.3631 4.93215 29.0065 4.83719C28.7117 4.76015 28.416 4.68312 28.1176 4.61593C27.7932 4.54606 27.4644 4.48335 27.1373 4.42513C26.8291 4.37317 26.5191 4.32659 26.2091 4.28717C25.899 4.24776 25.5738 4.21461 25.2566 4.18057C25.1951 4.17744 25.1335 4.17744 25.072 4.18057C25.0532 4.1778 25.034 4.17964 25.016 4.18594C24.9981 4.19224 24.9819 4.20281 24.9689 4.21673C24.956 4.23066 24.9466 4.24753 24.9416 4.26589C24.9366 4.28424 24.9362 4.30354 24.9403 4.32211C24.943 4.45756 24.9598 4.59236 24.9905 4.72432C25.0415 4.89184 25.1204 5.0495 25.1858 5.21432C25.3713 5.68014 25.5559 6.14774 25.7422 6.61355C25.9286 7.07937 26.1293 7.55414 26.3157 8.02533C26.3284 8.07076 26.3546 8.1113 26.3907 8.14166C26.4268 8.17202 26.4712 8.19079 26.5182 8.19553C26.6974 8.22419 26.8766 8.26182 27.0558 8.30213C27.235 8.34244 27.4232 8.39171 27.6069 8.43739C27.8828 8.50458 28.1633 8.56101 28.4357 8.63536C28.6776 8.70255 28.9133 8.78406 29.1525 8.86379C29.665 9.04026 30.1767 9.21673 30.717 9.40575Z" fill="white"/>
<path fill-rule="evenodd" clip-rule="evenodd" d="M20.3904 4.23161C20.2363 4.25401 20.1135 4.25938 19.998 4.28805C19.5643 4.39465 19.127 4.49139 18.7023 4.62666C18.0831 4.82463 17.4667 5.03604 16.8619 5.27522C16.257 5.51439 15.6809 5.77149 15.1012 6.05724C14.1433 6.52855 13.2281 7.08183 12.3656 7.71088C11.9113 8.04412 11.4588 8.38273 11.0216 8.74373C10.2086 9.41719 9.45364 10.1576 8.76449 10.9572C8.44282 11.3362 8.12294 11.716 7.81919 12.1083C7.56561 12.4371 7.33354 12.7811 7.0952 13.1224C6.97782 13.2899 6.83356 13.3553 6.64719 13.2935C6.59198 13.2698 6.54538 13.2298 6.51368 13.1788C6.11047 12.6055 5.70875 12.0313 5.30853 11.4562C5.10961 11.1722 4.91248 10.8865 4.71177 10.6025C4.63296 10.5036 4.59125 10.3802 4.59387 10.2537C4.59648 10.1272 4.64327 10.0057 4.72611 9.91006C5.15351 9.37258 5.57285 8.82615 6.02266 8.30659C7.11935 7.04773 8.34459 5.90686 9.67844 4.90256C10.954 3.93802 12.321 3.10064 13.7598 2.4024C14.5149 2.0296 15.293 1.70556 16.0895 1.43225C16.5635 1.27191 17.0357 1.09812 17.5169 0.957484C17.998 0.816844 18.5025 0.703974 18.998 0.586625C19.3564 0.50242 19.7148 0.425979 20.0732 0.357301C20.3187 0.311615 20.5687 0.284742 20.8178 0.251597C21.0669 0.218453 21.3312 0.188892 21.5866 0.154851C22.3644 0.0529594 23.1479 0.00119499 23.9324 -0.000121151C24.4306 -0.000121151 24.9279 -0.00549592 25.4243 0.00525362C25.7827 0.0142116 26.1456 0.0410854 26.5049 0.0679593C26.926 0.0993121 27.3454 0.131561 27.7656 0.177246C28.0218 0.205016 28.2763 0.25518 28.5299 0.297283C28.7449 0.333115 28.9591 0.368051 29.1723 0.413736C29.6768 0.521231 30.1831 0.623352 30.6821 0.749659C31.2153 0.884924 31.7475 1.02646 32.2681 1.19756C32.8425 1.38567 33.407 1.60335 33.9706 1.82461C34.423 2.00377 34.8666 2.21697 35.3253 2.41853C35.3602 2.39252 35.3917 2.36244 35.4194 2.32895C35.828 1.71801 36.233 1.10439 36.6407 0.494358C36.7007 0.404778 36.7635 0.280263 36.8477 0.257868C37.005 0.207417 37.1758 0.219611 37.3244 0.291908C37.5932 0.438818 37.8692 0.573188 38.1308 0.729952C38.6451 1.03631 39.155 1.35701 39.6621 1.66964C39.7436 1.7216 39.8655 1.75205 39.8745 1.87209C39.8861 2.03333 39.9085 2.19726 39.8055 2.34686C39.5949 2.65591 39.3861 2.96675 39.1782 3.2767C38.9704 3.58664 38.7553 3.91182 38.5457 4.22803C38.5351 4.24858 38.5279 4.27065 38.5242 4.29342C38.5591 4.32299 38.5923 4.35523 38.6308 4.383C39.9995 5.33895 41.2655 6.43408 42.4084 7.65086C42.9792 8.25642 43.5105 8.89333 44.0213 9.54816C44.1386 9.69596 44.2238 9.84467 44.2005 10.0471C44.193 10.1483 44.1586 10.2457 44.101 10.3293C43.7002 10.8972 43.3009 11.4646 42.903 12.0313C42.731 12.2767 42.5643 12.5258 42.3923 12.7694C42.3415 12.8457 42.2666 12.9029 42.1796 12.9318C42.0926 12.9606 41.9984 12.9596 41.912 12.9289C41.8601 12.8989 41.8179 12.8548 41.7902 12.8017C40.8824 11.5004 39.8304 10.3058 38.6541 9.2409C37.8628 8.52235 37.0168 7.86644 36.1237 7.27911C35.1561 6.63951 34.1372 6.0813 33.0772 5.61024C32.4688 5.3415 31.8541 5.09337 31.2242 4.88286C30.8076 4.74401 30.3829 4.63203 29.9617 4.5111C29.6804 4.43227 29.4017 4.34807 29.1177 4.28805C28.7736 4.2128 28.4251 4.15637 28.0783 4.09635C27.7907 4.04618 27.5031 3.99871 27.2163 3.95213C27.1267 3.93869 27.0371 3.93242 26.9475 3.92167C26.8203 3.90644 26.6913 3.893 26.564 3.87598C26.4968 3.86703 26.4305 3.84821 26.3633 3.84553C25.866 3.81328 25.3696 3.78461 24.8741 3.75595C24.8141 3.75057 24.7514 3.75595 24.6904 3.75595C24.5686 3.74788 24.5112 3.8088 24.4673 3.91988C24.2926 4.37494 24.1089 4.82732 23.9297 5.28238C23.7371 5.77955 23.5525 6.2803 23.3571 6.77746C23.1779 7.22536 22.9987 7.66788 22.8195 8.1122C22.5749 8.72134 22.3321 9.33138 22.0866 9.94052C21.8742 10.4681 21.6592 10.994 21.4468 11.5225C21.2067 12.1182 20.9701 12.7148 20.73 13.3141C20.54 13.7835 20.3456 14.252 20.1557 14.7232C19.9764 15.1711 19.8017 15.6145 19.6234 16.0597C19.4066 16.5972 19.1891 17.1367 18.9711 17.6784C18.8224 18.0493 18.6727 18.4192 18.5231 18.7901C18.3089 19.3231 18.0984 19.8579 17.886 20.3918C17.6351 21.0188 17.3869 21.6459 17.1334 22.2729C16.8646 22.9385 16.5859 23.5996 16.3171 24.2643C16.1379 24.7122 15.9587 25.1699 15.7795 25.6223C15.6003 26.0747 15.4211 26.5271 15.2347 26.9794L14.4157 28.9977C14.3028 29.2736 14.1854 29.5486 14.0824 29.8299C14.0702 29.8718 14.0435 29.908 14.0071 29.9321C13.9707 29.9562 13.9269 29.9667 13.8835 29.9615C13.8029 29.9709 13.7213 29.9567 13.6486 29.9206C13.5759 29.8845 13.5152 29.8281 13.474 29.7582C12.8539 28.8561 12.2196 27.9612 11.5923 27.0645C11.4346 26.8397 11.4579 26.5871 11.5422 26.3622C11.8011 25.6689 12.0887 24.9872 12.3647 24.3019C12.569 23.7922 12.7751 23.2834 12.9767 22.7728C13.1676 22.2864 13.3503 21.8008 13.5412 21.3144C13.7553 20.7769 13.9731 20.2395 14.1881 19.6957C14.431 19.0875 14.672 18.4774 14.9175 17.8692C15.1316 17.3362 15.3539 16.805 15.568 16.2729C15.7741 15.765 15.973 15.2553 16.1782 14.75C16.4873 13.985 16.7982 13.2218 17.1056 12.4559C17.3744 11.7841 17.6342 11.1122 17.9048 10.4386C18.1754 9.76494 18.4425 9.11101 18.7113 8.44633C19.0114 7.69924 19.3044 6.94946 19.6073 6.20684C19.8465 5.61024 20.0947 5.01543 20.3366 4.42152C20.3583 4.35932 20.3762 4.29591 20.3904 4.23161Z" fill="white"/>
<path fill-rule="evenodd" clip-rule="evenodd" d="M30.7169 9.40566C30.1793 9.21934 29.6649 9.04734 29.1515 8.86819C28.915 8.78846 28.6793 8.70694 28.4347 8.63976C28.1659 8.56541 27.8819 8.50897 27.6059 8.44179C27.4222 8.39789 27.2394 8.35221 27.0548 8.30652C26.8702 8.26084 26.6964 8.22859 26.5172 8.19992C26.4703 8.19519 26.4258 8.17642 26.3897 8.14606C26.3536 8.11569 26.3274 8.07515 26.3147 8.02972C26.1283 7.55853 25.9321 7.09003 25.7413 6.61795C25.5504 6.14586 25.3703 5.68453 25.1848 5.21872C25.1194 5.05389 25.0406 4.89623 24.9895 4.72872C24.9588 4.59676 24.942 4.46196 24.9393 4.3265C24.9352 4.30793 24.9356 4.28864 24.9406 4.27028C24.9456 4.25192 24.955 4.23506 24.968 4.22113C24.9809 4.2072 24.9971 4.19663 25.015 4.19033C25.033 4.18403 25.0522 4.18219 25.071 4.18497C25.1325 4.18183 25.1941 4.18183 25.2556 4.18497C25.5728 4.21901 25.8918 4.24947 26.2081 4.29157C26.5244 4.33367 26.8281 4.38115 27.1364 4.42952C27.4634 4.48775 27.7923 4.55045 28.1166 4.62033C28.415 4.68751 28.7107 4.76455 29.0055 4.84159C29.3639 4.93117 29.7223 5.02075 30.0673 5.12914C30.5045 5.26978 30.9427 5.41848 31.3674 5.59405C31.9205 5.82218 32.465 6.06733 33.0008 6.3295C33.6305 6.63766 34.2535 6.95954 34.87 7.29517C35.1502 7.44792 35.4165 7.62508 35.6656 7.82458C35.9084 8.01718 35.9264 8.29219 35.7552 8.55107C35.3216 9.1853 34.8807 9.81504 34.4479 10.4511C33.9002 11.2549 33.3551 12.0611 32.8127 12.8697C32.6917 13.0489 32.5734 13.2343 32.4471 13.4072C32.42 13.4423 32.4031 13.4842 32.3982 13.5282C32.3933 13.5723 32.4006 13.6169 32.4193 13.6571C32.718 14.4 33.0167 15.1432 33.3154 15.8867C33.5812 16.5604 33.8461 17.2352 34.1101 17.9112C34.1337 17.9603 34.1597 18.0081 34.1881 18.0546C34.2291 18.0132 34.2674 17.9692 34.3028 17.9229C34.8667 17.0731 35.4303 16.2233 35.9936 15.3734C36.4577 14.6765 36.9236 13.9832 37.3887 13.2871C37.7695 12.7156 38.1467 12.1423 38.5311 11.5726C38.6861 11.3424 38.8555 11.1193 39.0203 10.8954C39.0427 10.864 39.0777 10.8228 39.1099 10.8201C39.2891 10.8067 39.4684 10.7655 39.6207 10.9276C40.2929 11.6219 40.9213 12.3573 41.5023 13.1295C41.5655 13.2262 41.5991 13.3392 41.5991 13.4547C41.5991 13.5701 41.5655 13.6831 41.5023 13.7798C41.2873 14.1023 41.0687 14.423 40.8536 14.7437C40.3709 15.4693 39.8889 16.194 39.4074 16.9178C38.8597 17.7395 38.3131 18.5607 37.7677 19.3812C36.9571 20.5977 36.1456 21.8139 35.3332 23.0298C35.1226 23.3469 34.8924 23.6506 34.6818 23.9659C34.5026 24.2347 34.3476 24.5097 34.1728 24.7721C34.0241 24.9988 33.8512 25.212 33.7051 25.4404C33.6057 25.5972 33.4632 25.53 33.336 25.5353C33.2338 25.5398 33.1899 25.4592 33.1568 25.3705C32.8243 24.524 32.4874 23.6793 32.1532 22.8336C31.7993 21.9307 31.4489 21.025 31.0932 20.1221C30.7411 19.2325 30.3827 18.3466 30.0314 17.4571C29.7913 16.8515 29.5592 16.2433 29.32 15.6368C29.0807 15.0304 28.8218 14.4051 28.5826 13.787C28.4876 13.5415 28.3406 13.3069 28.3881 13.0256C28.3964 12.9535 28.4189 12.8837 28.4544 12.8204C29.0279 11.9515 29.6076 11.0862 30.1837 10.2226C30.3477 9.96285 30.518 9.70217 30.7169 9.40566Z" fill="white"/>
<path d="M48.9912 23.8326C48.9787 23.1858 48.9339 22.5409 48.9016 21.8941C48.9016 21.8412 48.8864 21.7866 48.8792 21.7328C48.8344 21.4104 48.7896 21.087 48.7484 20.7636C48.7135 20.5146 48.6848 20.2655 48.6373 20.0183C48.571 19.6725 48.4931 19.3276 48.4142 18.9845C48.3246 18.5877 48.235 18.1891 48.1284 17.7976C47.9214 17.0541 47.675 16.3204 47.3972 15.5975C47.1121 14.8343 46.7808 14.0892 46.4053 13.3661C46.0335 12.6638 45.6267 11.9794 45.2306 11.2906C45.1558 11.1608 45.0726 11.036 44.9815 10.917C44.947 10.8797 44.9048 10.8502 44.858 10.8304C44.8111 10.8107 44.7606 10.8011 44.7097 10.8024C44.6588 10.8036 44.6088 10.8157 44.563 10.8378C44.5172 10.8599 44.4766 10.8915 44.4439 10.9304L43.7845 11.8836C43.3311 12.5366 42.8607 13.1753 42.4315 13.8463C42.0399 14.4581 41.6035 15.0421 41.1905 15.6379C40.7126 16.3324 40.2347 17.0269 39.7568 17.7215C39.4325 18.1909 39.1063 18.6585 38.7846 19.1297C38.3993 19.6976 38.0194 20.2682 37.635 20.837C37.2076 21.4686 36.7829 22.0983 36.3528 22.7263C35.7256 23.6412 35.0984 24.5546 34.4712 25.4665C34.387 25.5875 34.2749 25.6905 34.1916 25.8123C34.102 25.952 34.0375 26.116 33.9318 26.245C33.8553 26.3317 33.7995 26.4346 33.7685 26.546C33.7374 26.6574 33.732 26.7744 33.7526 26.8881C33.7788 27.0262 33.8181 27.1615 33.8699 27.2922C34.1686 28.0422 34.4673 28.7914 34.766 29.5397C34.8735 29.8084 34.981 30.0682 35.0957 30.328C35.1054 30.3519 35.1198 30.3736 35.1379 30.3919C35.1561 30.4102 35.1777 30.4247 35.2014 30.4346C35.2815 30.4633 35.3693 30.4626 35.4489 30.4325C35.5285 30.4025 35.5948 30.3451 35.636 30.2707C35.9102 29.8801 36.1844 29.4895 36.4541 29.0972C37.1207 28.1303 37.7856 27.1608 38.4486 26.1885C38.8429 25.6179 39.2416 25.0509 39.635 24.4785C39.9808 23.9741 40.3204 23.4662 40.6654 22.9601C40.9987 22.4737 41.3419 21.9899 41.6761 21.5035C42.1555 20.803 42.6322 20.0989 43.1097 19.3975C43.3786 19.0034 43.6402 18.6074 43.9081 18.2124C44.0228 18.0466 44.1429 17.8836 44.2665 17.708C44.2907 17.7325 44.3128 17.7589 44.3328 17.7869C44.3527 17.8222 44.3698 17.859 44.3839 17.897C44.5765 18.5241 44.7907 19.1512 44.9215 19.7934C44.9502 19.9448 44.9977 20.0935 45.0317 20.2413C45.0774 20.4456 45.1213 20.6525 45.1599 20.8585C45.2029 21.1192 45.236 21.3817 45.2719 21.6442C45.3193 21.9864 45.3767 22.3285 45.4125 22.6725C45.443 22.9843 45.4502 23.2996 45.4744 23.6104C45.5469 24.5958 45.4618 25.5686 45.3516 26.5424C45.322 26.7851 45.2844 27.0261 45.2539 27.2689C45.2477 27.3038 45.2539 27.336 45.2459 27.371C45.2127 27.6048 45.1778 27.8386 45.1392 28.0733C45.1151 28.2193 45.0873 28.3662 45.0496 28.5113C45.0075 28.6905 44.9556 28.8634 44.9117 29.0407C44.8453 29.3158 44.7907 29.5952 44.7127 29.8676C44.6187 30.1918 44.5102 30.5134 44.3982 30.8332C44.2755 31.1915 44.1572 31.5499 44.0094 31.8965C43.78 32.434 43.5497 32.9822 43.2791 33.5036C42.9574 34.1235 42.6133 34.7344 42.2388 35.3238C41.8874 35.8735 41.5085 36.4051 41.1035 36.9166C40.6744 37.4621 40.2075 37.9736 39.7523 38.5012C39.6484 38.6222 39.5364 38.6983 39.3662 38.6616C39.2846 38.6517 39.2022 38.6517 39.1206 38.6616C39.0832 38.6578 39.0454 38.6617 39.0095 38.673C38.9737 38.6844 38.9405 38.703 38.9122 38.7277C38.8838 38.7524 38.8607 38.7826 38.8445 38.8165C38.8283 38.8505 38.8192 38.8874 38.8178 38.9249C38.8126 39.0255 38.8223 39.1264 38.8465 39.2241C38.8608 39.294 38.8877 39.3585 38.8259 39.4149C38.747 39.4848 38.6637 39.5502 38.557 39.6407C38.514 39.5296 38.4782 39.4526 38.4522 39.3719C38.4119 39.2358 38.3805 39.096 38.342 38.959C38.1762 38.3767 38.0096 37.7945 37.8483 37.2131C37.7901 37.0035 37.644 36.9399 37.4639 37.0581C37.3618 37.1244 37.265 37.2014 37.1664 37.2731C36.9711 37.4146 36.9335 37.5132 36.9998 37.7407C37.1234 38.1716 37.2506 38.6016 37.3734 39.0324C37.3789 39.0819 37.3789 39.1317 37.3734 39.1811C37.3361 39.1632 37.2999 39.1432 37.265 39.1211C36.8752 38.8479 36.4819 38.5792 36.1002 38.2988C36.0548 38.257 35.9968 38.2318 35.9353 38.227C35.8739 38.2223 35.8126 38.2385 35.7615 38.2728C35.6115 38.3675 35.4664 38.4697 35.3269 38.5792C35.2959 38.6029 35.2712 38.6338 35.2549 38.6693C35.2386 38.7048 35.2312 38.7437 35.2335 38.7826C35.2357 38.8216 35.2474 38.8594 35.2676 38.8928C35.2878 38.9262 35.3158 38.9541 35.3493 38.9742C35.4469 39.0477 35.55 39.1149 35.6494 39.1838C36.1799 39.5535 36.71 39.9238 37.2399 40.2946C37.3295 40.3546 37.4083 40.4227 37.4827 40.4809C37.472 40.5186 37.4729 40.5383 37.4648 40.5436C37.1503 40.7819 36.8456 41.0345 36.515 41.2486C36.3224 41.3758 36.1566 41.2916 36.067 41.082C36.0473 41.039 36.0267 40.9924 36.0034 40.953C35.7758 40.5284 35.5485 40.1032 35.3215 39.6774C35.2968 39.6451 35.2819 39.6064 35.2786 39.566C35.2753 39.5255 35.2836 39.4849 35.3027 39.449C35.3297 39.3935 35.3428 39.3324 35.341 39.2707C35.3391 39.2091 35.3223 39.1488 35.2919 39.0951C35.2023 38.9026 35.0769 38.8542 34.8842 38.9527C34.6453 39.0793 34.4064 39.2077 34.1674 39.3379C34.0241 39.4176 33.9748 39.4911 34.0151 39.6138C34.0554 39.7365 34.1047 39.9273 34.2615 39.9318C34.4407 39.9399 34.4936 40.0384 34.559 40.1594C34.7794 40.5759 34.9989 40.9898 35.2238 41.4036C35.3054 41.5514 35.403 41.693 35.3 41.8712C35.2875 41.8927 35.3 41.9277 35.2937 41.9509C35.2829 41.9967 35.261 42.0391 35.2301 42.0746C35.0868 42.1933 34.9228 42.2844 34.7463 42.3433C34.7104 42.2761 34.6755 42.2188 34.6504 42.1579C34.3517 41.4574 34.056 40.7563 33.7633 40.0545C33.6692 39.827 33.5644 39.7858 33.3377 39.8817C33.2481 39.922 33.1531 39.9659 33.059 40.0062C32.8494 40.0958 32.8073 40.1853 32.8924 40.403C32.9632 40.5822 33.0429 40.7533 33.1155 40.9271C33.1881 41.1008 33.2508 41.2603 33.3189 41.4269C33.3055 41.4377 33.292 41.4484 33.2804 41.4592C33.2203 41.4224 33.1576 41.3866 33.1012 41.3472C32.7723 41.1295 32.4381 40.9181 32.1155 40.687C32.0363 40.6279 31.9424 40.5916 31.844 40.582C31.7457 40.5724 31.6465 40.5898 31.5573 40.6323C31.4811 40.661 31.4068 40.6932 31.3333 40.7219C31.1541 40.8007 31.112 40.8823 31.1541 41.0758C31.1641 41.1153 31.1773 41.1539 31.1935 41.1913C31.4982 41.9044 31.8022 42.6177 32.1057 43.3314C32.1352 43.4048 32.155 43.481 32.1845 43.5732L31.4202 43.8545C31.4139 43.7703 31.4095 43.7201 31.405 43.6691C31.3906 43.4899 31.388 43.3018 31.3575 43.1217C31.3252 42.9274 31.2679 42.7375 31.2222 42.5458C31.1138 42.0979 31 41.65 30.8987 41.1949C30.8727 41.074 30.8091 41.0292 30.7007 41.0489C30.5018 41.0829 30.302 41.125 30.1049 41.1734C30.064 41.1826 30.0285 41.2075 30.0059 41.2427C29.9832 41.2779 29.9753 41.3206 29.9839 41.3615C29.9887 41.4154 29.9968 41.4689 30.0081 41.5219C30.158 42.1447 30.3074 42.7673 30.4561 43.3896C30.4663 43.4288 30.4741 43.4686 30.4794 43.5087C30.4793 43.5737 30.4611 43.6373 30.4267 43.6924C30.3924 43.7475 30.3433 43.7919 30.285 43.8205C30.1882 43.8563 30.1057 43.8205 30.0161 43.6942C29.9769 43.6396 29.9466 43.5791 29.9265 43.515C29.8862 43.3717 29.8549 43.2257 29.819 43.0796C29.742 42.7572 29.664 42.4344 29.5852 42.1113C29.526 41.8766 29.466 41.641 29.406 41.3839C29.2751 41.3964 29.1613 41.4045 29.0475 41.4215C28.9803 41.4323 28.9176 41.4618 28.8522 41.4726C28.5494 41.5236 28.5072 41.5514 28.5709 41.8972C28.5771 41.9241 28.587 41.95 28.5933 41.976C28.7232 42.518 28.8459 43.0626 28.9821 43.6028C29.044 43.8438 29.0941 44.0946 29.2429 44.3069C29.2671 44.3427 29.2859 44.3839 29.3226 44.4511C29.1999 44.4851 29.0977 44.5147 28.9956 44.5407C28.9364 44.5568 28.8746 44.5604 28.8164 44.5738C28.6183 44.6168 28.4212 44.6706 28.2223 44.7037C27.9616 44.7467 27.6972 44.7718 27.4356 44.8067C27.4024 44.8067 27.3684 44.8256 27.3361 44.8309L26.9329 44.8811C26.8925 44.8865 26.8513 44.8794 26.815 44.8609C26.7787 44.8423 26.7488 44.8131 26.7295 44.7772C26.4742 44.4189 26.2152 44.0605 25.9589 43.6968C25.8443 43.5374 25.8443 43.5329 25.9589 43.3779C26.2071 43.0537 26.4509 42.7276 26.7035 42.4069C26.7684 42.3281 26.8005 42.2274 26.7931 42.1256C26.786 42.002 26.7716 41.9814 26.6498 41.9787C26.4114 41.9787 26.1731 41.9787 25.933 41.9787C25.8924 41.9758 25.8519 41.9844 25.816 42.0036C25.7802 42.0228 25.7505 42.0517 25.7305 42.0871C25.6453 42.2188 25.5513 42.3451 25.4617 42.4696C25.4151 42.5305 25.3595 42.5834 25.3084 42.6389C25.2821 42.4782 25.2701 42.3154 25.2726 42.1525C25.2726 42.0038 25.2529 41.9841 25.1104 41.9805C24.9312 41.976 24.752 41.9805 24.58 41.9805C24.4079 41.9805 24.3918 42.0065 24.3918 42.1704C24.3918 42.9892 24.3933 43.8064 24.3963 44.6222C24.3963 44.7566 24.3963 44.8909 24.3963 45.0343H24.157C24.1113 44.7745 24.1113 44.7745 23.8981 44.7064V42.6828C23.921 42.6711 23.945 42.6618 23.9698 42.655C24.1284 42.6183 24.1311 42.6156 24.1346 42.4571C24.1391 42.3675 24.1346 42.2779 24.1346 42.1883C24.1373 42.1714 24.136 42.154 24.1307 42.1377C24.1255 42.1213 24.1165 42.1064 24.1045 42.0941C24.0925 42.0819 24.0778 42.0726 24.0616 42.067C24.0453 42.0614 24.028 42.0597 24.011 42.062H22.9384C22.8569 42.062 22.8094 42.097 22.8094 42.183C22.8094 42.2922 22.8094 42.4024 22.8193 42.5099C22.8256 42.5556 22.8641 42.6255 22.899 42.6335C23.0388 42.6613 23.0397 42.7545 23.0388 42.8638C23.0388 43.3744 23.0388 43.8859 23.0388 44.3956C23.0424 44.4637 23.0406 44.532 23.0334 44.5998C23.0281 44.6428 23.0021 44.7136 22.9761 44.7181C22.8426 44.7378 22.8121 44.8399 22.77 44.9653C22.5639 44.9313 22.3623 44.8999 22.1652 44.8685C22.1652 44.8345 22.1652 44.8247 22.1652 44.8211C22.2037 44.7736 22.2413 44.727 22.2808 44.6822C22.5275 44.4043 22.6689 44.0486 22.6804 43.6771C22.6911 43.5051 22.6428 43.4577 22.4743 43.438C22.399 43.4299 22.3238 43.4335 22.2503 43.4218C21.9887 43.3771 21.7288 43.3269 21.4672 43.283C21.3668 43.2669 21.2629 43.2642 21.1616 43.2552C21.1399 43.2507 21.1174 43.2511 21.0958 43.2563C21.0742 43.2616 21.054 43.2717 21.0368 43.2858C21.0197 43.2999 21.0058 43.3176 20.9964 43.3378C20.987 43.3579 20.9822 43.3799 20.9824 43.4021C20.9654 43.5652 20.9484 43.7264 20.934 43.8894C20.9251 43.9871 20.9708 44.0355 21.0711 44.0534C21.2011 44.074 21.331 44.1125 21.4699 44.143C21.3328 44.3141 21.1428 44.3794 20.995 44.3221C20.8147 44.2546 20.6587 44.1348 20.547 43.9781C20.4352 43.8213 20.3728 43.6348 20.3678 43.4424C20.3646 43.2534 20.4164 43.0675 20.5167 42.9073C20.6171 42.747 20.7617 42.6193 20.9331 42.5395C21.0577 42.4732 21.2073 42.4015 21.3614 42.4875C21.552 42.5794 21.7154 42.7192 21.8354 42.8933C21.9519 43.0779 22.1043 43.0967 22.2835 42.9668C22.3504 42.909 22.421 42.8558 22.4949 42.8073C22.6696 42.7124 22.7064 42.5117 22.5845 42.3254C22.4513 42.1019 22.2553 41.9224 22.0209 41.8094C21.6817 41.6658 21.3132 41.6044 20.9457 41.6303C20.7476 41.6362 20.5543 41.6933 20.3848 41.796C20.0478 41.9813 19.7882 42.2809 19.6527 42.6407C19.4839 43.0684 19.4526 43.5381 19.5631 43.9844C19.5999 44.1331 19.6527 44.2764 19.7083 44.4601L18.6555 44.1797C18.7343 43.9719 18.7997 43.7882 18.8705 43.6064C19.1071 42.9919 19.3463 42.3773 19.5819 41.761C19.608 41.684 19.6257 41.6044 19.6348 41.5237C19.6422 41.4825 19.6344 41.4401 19.6128 41.4043C19.5912 41.3686 19.5573 41.3419 19.5174 41.3293C19.3619 41.2616 19.2031 41.2018 19.0416 41.1501C18.8929 41.1017 18.8105 41.1501 18.754 41.2943C18.6313 41.6177 18.5121 41.9429 18.3875 42.2654C18.3616 42.3204 18.3317 42.3734 18.2979 42.4239C18.2797 42.3981 18.2641 42.3705 18.2513 42.3415C18.1588 41.9312 18.0692 41.5198 17.9825 41.1071C17.8929 40.6825 17.8786 40.67 17.462 40.5374C17.3365 40.4881 17.1984 40.4812 17.0686 40.5177C17.0337 40.6073 16.9924 40.6968 16.9575 40.7927C16.6887 41.503 16.4082 42.2152 16.1394 42.9274C16.0131 43.2642 16.0185 43.1961 15.7568 43.0823C15.5776 43.0053 15.3984 42.9103 15.1807 42.8028C15.2504 42.7732 15.3186 42.74 15.385 42.7034C15.54 42.604 15.7192 42.5243 15.8393 42.3971C16.3374 41.8542 16.5561 41.2227 16.3903 40.4809C16.3436 40.2355 16.2305 40.0075 16.0631 39.822C15.8958 39.6364 15.6808 39.5002 15.4414 39.4284C14.6529 39.1552 13.9182 39.4992 13.489 40.137C13.2245 40.5299 13.1118 41.0055 13.1718 41.4753C13.1715 41.5232 13.1658 41.571 13.1548 41.6177C12.8795 41.4751 12.6215 41.3014 12.386 41.0999C12.3906 41.0777 12.3978 41.056 12.4075 41.0354L13.9307 38.9877C14.0687 38.8022 14.0508 38.6347 13.8698 38.4994C13.7874 38.4376 13.7058 38.3767 13.6225 38.3203C13.4433 38.1904 13.3196 38.2074 13.1897 38.3821C13.0705 38.5407 12.9594 38.7019 12.8403 38.8596C12.7838 38.9339 12.7211 39.0011 12.6512 39.0817L12.1718 38.7234C12.1798 38.6961 12.1906 38.6696 12.2041 38.6446C12.3546 38.4421 12.506 38.2424 12.6593 38.0408C12.7928 37.8616 12.7748 37.6977 12.6064 37.5669C12.5168 37.4997 12.4272 37.437 12.3376 37.3743C12.1288 37.222 12.0186 37.24 11.8645 37.4487C11.4514 38.0077 11.041 38.5666 10.6271 39.1229C10.5429 39.2367 10.4479 39.3442 10.3511 39.4714C10.2794 39.4114 10.2185 39.3702 10.1719 39.3191C9.73912 38.8712 9.29917 38.4376 8.87893 37.9835C8.25898 37.2959 7.68744 36.5661 7.16842 35.7995C7.12901 35.7494 7.10449 35.6893 7.09768 35.6259C7.09086 35.5625 7.10203 35.4985 7.12989 35.4412C7.18276 35.323 7.22846 35.202 7.27595 35.0829C7.53938 34.4137 7.79833 33.7392 8.06534 33.0781C8.33236 32.417 8.61102 31.7344 8.87893 31.067C9.06531 30.5958 9.23734 30.1193 9.42282 29.649C9.63607 29.1115 9.85829 28.574 10.0715 28.0366C10.2848 27.4991 10.4909 26.9526 10.6988 26.4107C10.8878 25.9279 11.0814 25.4468 11.2704 24.9622C11.4496 24.5098 11.6288 24.0565 11.808 23.6051C11.9998 23.1213 12.196 22.6394 12.386 22.1548C12.4944 21.878 12.5903 21.5967 12.6978 21.319C12.842 20.9454 12.9944 20.5764 13.1458 20.2055L13.7094 18.7454C13.7824 18.5776 13.826 18.3985 13.8384 18.216C13.8496 17.9802 13.7773 17.748 13.6341 17.5602C13.0338 16.7262 12.4496 15.8815 11.8699 15.0323C11.824 14.9537 11.7549 14.8913 11.6722 14.8534C11.5894 14.8156 11.497 14.8042 11.4075 14.8209C11.3707 14.8206 11.3348 14.8327 11.3057 14.8553C11.2766 14.8779 11.256 14.9097 11.2471 14.9454C11.1575 15.2007 11.0509 15.4515 10.9505 15.7032C10.708 16.3201 10.4655 16.9371 10.223 17.554C10.0724 17.932 9.9237 18.3073 9.77496 18.6845C9.61547 19.0849 9.45418 19.4862 9.29648 19.8866C9.13878 20.287 8.99452 20.6686 8.83951 21.0574C8.6845 21.4462 8.52232 21.8296 8.3682 22.2219C8.20423 22.6367 8.04473 23.0532 7.88166 23.468C7.73023 23.8505 7.57432 24.2312 7.42558 24.6137C7.24638 25.0804 7.06717 25.548 6.88797 26.0147C6.67023 26.5666 6.44712 27.1157 6.23029 27.6702C6.0457 28.1405 5.87188 28.6152 5.68819 29.0864C5.46956 29.6472 5.24884 30.2062 5.02603 30.7634C4.97048 30.9004 4.90955 31.0321 4.84682 31.1665C4.83071 31.1655 4.81455 31.1655 4.79844 31.1665C4.68375 30.8019 4.56278 30.44 4.45257 30.0727C4.37731 29.821 4.31369 29.5648 4.24738 29.3095C4.19541 29.107 4.14703 28.9046 4.10044 28.7003C4.06101 28.5283 4.03055 28.3564 3.99471 28.1826C3.94901 27.9586 3.89166 27.7347 3.85941 27.5071C3.8146 27.2115 3.80923 26.9114 3.75547 26.6185C3.65959 26.0927 3.67124 25.5597 3.61838 25.0321C3.53504 24.207 3.67124 23.3865 3.69722 22.565C3.70041 22.531 3.7058 22.4972 3.71335 22.4638C3.75875 22.1485 3.80385 21.8329 3.84865 21.517C3.84865 21.4901 3.84865 21.4623 3.85403 21.4354C3.88987 21.2016 3.92123 20.966 3.96603 20.7331C4.00277 20.5334 4.05563 20.3363 4.10044 20.1383C4.16405 19.849 4.21781 19.5552 4.29935 19.2685C4.41942 18.8457 4.5583 18.4283 4.69092 18.009C4.89456 17.3628 5.14214 16.7313 5.43193 16.1189C5.70074 15.5554 5.99284 15.0045 6.28046 14.4518C6.41576 14.1929 6.42024 13.9493 6.2491 13.7065C6.0475 13.4243 5.84858 13.1395 5.64966 12.8546C5.24914 12.2795 4.8522 11.7026 4.44809 11.1302C4.41441 11.0867 4.37102 11.0517 4.32139 11.0279C4.27176 11.0042 4.21726 10.9924 4.16225 10.9934C4.10724 10.9944 4.05323 11.0083 4.00454 11.034C3.95584 11.0596 3.91382 11.0962 3.88181 11.141C3.61927 11.5709 3.35405 11.9982 3.10406 12.4345C2.59422 13.3253 2.14894 14.2516 1.77167 15.2061C1.62203 15.5832 1.47867 15.9639 1.34516 16.3482C1.20449 16.7522 1.06471 17.1544 0.950015 17.5683C0.810235 18.0646 0.691064 18.568 0.572789 19.0687C0.492146 19.4127 0.414192 19.7567 0.357743 20.1052C0.279789 20.6024 0.209899 21.1004 0.156137 21.5994C0.0961037 22.1619 0.0306939 22.7254 0.0190456 23.2888C0.000229057 24.3298 -0.0320278 25.3805 0.071015 26.4259C0.115816 26.8792 0.146281 27.3342 0.192874 27.7884C0.217067 28.024 0.257388 28.2587 0.297709 28.4934C0.33803 28.7281 0.387312 28.9601 0.430321 29.193C0.494834 29.5263 0.551284 29.8604 0.625654 30.1918C0.689272 30.4686 0.768122 30.7436 0.848764 31.0178C1.02797 31.6153 1.19373 32.2181 1.39892 32.8094C1.59784 33.3728 1.8317 33.9219 2.06646 34.4711C2.5284 35.5453 3.07553 36.5808 3.7026 37.5678C4.55842 38.937 5.55059 40.2162 6.66396 41.3857C8.51358 43.3448 10.6758 44.9831 13.0625 46.2337C14.1691 46.814 15.3191 47.3073 16.5023 47.7091C16.9951 47.8775 17.4996 48.0173 18.0049 48.157C18.4691 48.2815 18.9404 48.3845 19.4072 48.4938C19.5793 48.5332 19.754 48.5655 19.9269 48.5986C20.1751 48.6443 20.4215 48.6936 20.6697 48.7276C20.9869 48.7733 21.3041 48.8172 21.6222 48.8414C22.2324 48.8978 22.8417 48.965 23.4537 48.9874C24.1266 49.0134 24.8031 49.0152 25.4769 48.9874C26.1292 48.9623 26.7806 48.8978 27.4302 48.836C27.9383 48.7841 28.4436 48.7169 28.9463 48.6282C29.4284 48.5431 29.9032 48.4302 30.3799 48.3165C30.7957 48.217 31.2061 48.1015 31.6173 47.9886C32.4927 47.7392 33.3509 47.4328 34.1862 47.0713C35.069 46.6987 35.9279 46.2718 36.7578 45.793C37.8848 45.1448 38.9592 44.4092 39.971 43.5929C40.9791 42.7799 41.9203 41.8872 42.7854 40.9235C43.5832 40.0383 44.3137 39.0948 44.9708 38.1008C45.7828 36.8776 46.4822 35.5832 47.0603 34.2337C47.4269 33.3794 47.7425 32.5042 48.0056 31.6126C48.2027 30.9416 48.382 30.2689 48.5119 29.5791C48.545 29.4062 48.5827 29.2324 48.6158 29.0596C48.6588 28.8195 48.7054 28.5803 48.7439 28.3375C48.7882 28.0216 48.8255 27.7045 48.8559 27.3862C48.9034 26.8917 48.9635 26.4008 48.9805 25.9019C49.0038 25.2085 49.0047 24.5197 48.9912 23.8326ZM12.0849 39.8673C11.9308 40.0805 11.7704 40.2892 11.5867 40.5302L11.1109 40.1316C11.2803 39.8834 11.446 39.6559 11.6396 39.4149C11.7919 39.5287 11.9344 39.6273 12.0697 39.7365C12.0836 39.755 12.0924 39.7769 12.0951 39.7999C12.0978 39.8229 12.0943 39.8461 12.0849 39.8673ZM14.0857 41.546C13.9307 41.1877 14.0956 40.7013 14.4271 40.4451C14.5893 40.3188 14.7586 40.2059 15.0212 40.2149C15.0862 40.214 15.1504 40.2289 15.2084 40.2584C15.2663 40.2879 15.3161 40.3311 15.3536 40.3842C15.5597 40.6341 15.6547 40.9029 15.5328 41.2307C15.4829 41.3788 15.4035 41.5152 15.2994 41.6318C15.1953 41.7483 15.0686 41.8426 14.9271 41.9088C14.5472 42.0871 14.2757 41.9823 14.0857 41.546ZM17.5802 43.8151L16.9225 43.5786C17.0256 43.2395 17.1575 42.9098 17.3168 42.5932C17.4727 42.9757 17.5247 43.3753 17.6241 43.7649L17.5802 43.8151ZM25.3756 45.0128C25.3518 45.0058 25.3301 44.9929 25.3127 44.9751C25.2953 44.9574 25.2827 44.9355 25.2762 44.9115C25.2659 44.7713 25.2716 44.6304 25.2932 44.4914C25.451 44.6302 25.5813 44.7973 25.6776 44.9841C25.5762 45.0029 25.4734 45.0125 25.3703 45.0128H25.3756ZM33.3503 43.0761C33.0635 43.1889 33.0976 43.2678 32.9488 42.9184C32.8745 42.7446 32.8001 42.5681 32.7266 42.3935C32.719 42.3681 32.7139 42.3419 32.7114 42.3155C32.7493 42.3149 32.7871 42.3216 32.8225 42.3352C33.0913 42.5144 33.3601 42.6936 33.6836 42.905C33.5474 42.9748 33.4524 43.0349 33.3485 43.0761H33.3503Z" fill="white"/>
<path d="M35.0075 32.452C34.8113 31.9844 34.6258 31.5123 34.4368 31.042C34.2836 30.6586 34.1366 30.2743 33.9834 29.8918C33.7988 29.4278 33.6044 28.9656 33.4225 28.4998C33.2406 28.0339 33.0641 27.5538 32.8804 27.0835C32.6662 26.5362 32.444 25.9933 32.2281 25.4469C32.074 25.059 31.927 24.6675 31.772 24.2823C31.5874 23.8183 31.393 23.357 31.2093 22.8921C30.9405 22.2068 30.678 21.5197 30.4091 20.8317C30.2228 20.3543 30.0292 19.8804 29.8411 19.403C29.6323 18.8744 29.4289 18.3441 29.221 17.8174C29.0337 17.3453 28.8393 16.8777 28.6538 16.4056C28.4684 15.9335 28.2954 15.4731 28.1162 15.0082C27.8402 14.3086 27.5625 13.6125 27.2847 12.9129C27.1234 12.5053 26.9586 12.0977 26.7964 11.6893C26.6772 11.3874 26.5553 11.0837 26.438 10.78C26.3304 10.4978 26.231 10.213 26.1244 9.92902C26.0025 9.60833 25.8771 9.28853 25.7507 8.96962C25.6244 8.65072 25.4864 8.30315 25.3574 7.9726L24.9837 7.0141C24.8941 6.78299 24.7964 6.55277 24.6988 6.30822C24.6293 6.31408 24.5595 6.31408 24.49 6.30822C24.3368 6.28313 24.2651 6.37182 24.2212 6.49454C24.0751 6.85823 23.93 7.22372 23.7875 7.58831C23.6262 7.99769 23.4685 8.40796 23.3073 8.81823C23.1236 9.28853 22.9372 9.75792 22.7544 10.2309C22.6773 10.4325 22.6128 10.6367 22.5367 10.8374C22.3843 11.236 22.2293 11.6319 22.0752 12.0297L21.5286 13.4244C21.3691 13.8266 21.2079 14.2306 21.052 14.6319C20.8728 15.0897 20.6998 15.551 20.5197 16.0088C20.3324 16.4871 20.138 16.9628 19.9498 17.4421C19.7133 18.0458 19.4839 18.6523 19.2456 19.2542C19.0045 19.8706 18.7554 20.4833 18.5126 21.0978C18.3182 21.5896 18.1291 22.0832 17.9356 22.5732C17.7564 23.0264 17.5772 23.4779 17.4033 23.9312C17.2465 24.3343 17.0951 24.7374 16.9374 25.1423C16.7797 25.5472 16.622 25.9181 16.4688 26.3068C16.3021 26.7279 16.1408 27.1516 15.9787 27.5735C15.8505 27.9014 15.7251 28.2283 15.5979 28.5589C15.4706 28.8894 15.3443 29.2137 15.2126 29.5442C15.0056 30.062 14.7923 30.578 14.5853 31.0976C14.3927 31.5795 14.2081 32.0668 14.0146 32.5496C13.925 32.7646 13.8461 32.9769 13.925 33.2107C14.114 33.2546 34.9574 33.2502 35.1124 33.2107C35.1643 32.9268 35.1339 32.7539 35.0075 32.452ZM29.6753 29.7171H19.0897C19.0898 29.6815 19.0925 29.6458 19.0977 29.6105C19.1103 29.5666 19.13 29.521 19.1461 29.478L24.4613 15.9192C24.4765 15.9181 24.4918 15.9181 24.507 15.9192C24.5133 15.9192 24.5223 15.9192 24.5241 15.9264C24.5572 16.0007 24.593 16.0742 24.6244 16.1485L29.954 29.6992C29.8438 29.7064 29.7595 29.7171 29.6753 29.7171Z" fill="white"/>
</g>
<defs>
<clipPath id="clip0_634_13014">
<rect width="49" height="49" fill="white"/>
</clipPath>
</defs>
</svg>
